<svg width="30" height="31" viewBox="0 0 30 31" fill="none" xmlns="http://www.w3.org/2000/svg">
<path d="M10.0343 24.656C10.0343 24.78 9.89516 24.8793 9.71976 24.8793C9.52016 24.8979 9.38105 24.7986 9.38105 24.656C9.38105 24.5319 9.52016 24.4326 9.69556 24.4326C9.87702 24.414 10.0343 24.5133 10.0343 24.656ZM8.15323 24.3768C8.11089 24.5009 8.23186 24.6435 8.41331 24.6808C8.57056 24.7428 8.75202 24.6808 8.78831 24.5567C8.8246 24.4326 8.70968 24.29 8.52823 24.2341C8.37097 24.1907 8.19556 24.2527 8.15323 24.3768ZM10.8266 24.2713C10.6512 24.3148 10.5302 24.4326 10.5484 24.5753C10.5665 24.6994 10.7238 24.78 10.9052 24.7366C11.0806 24.6932 11.2016 24.5753 11.1835 24.4512C11.1653 24.3334 11.002 24.2527 10.8266 24.2713ZM14.8065 0.5C6.41734 0.5 0 7.03216 0 15.6362C0 22.5158 4.22177 28.4028 10.252 30.4747C11.0262 30.6174 11.2984 30.1273 11.2984 29.7241C11.2984 29.3395 11.2802 27.218 11.2802 25.9152C11.2802 25.9152 7.04637 26.8457 6.15726 24.0666C6.15726 24.0666 5.46774 22.2614 4.47581 21.7962C4.47581 21.7962 3.09073 20.8223 4.57258 20.8409C4.57258 20.8409 6.07863 20.9649 6.90726 22.4414C8.23185 24.8359 10.4516 24.1473 11.3165 23.7379C11.4556 22.7453 11.8488 22.0567 12.2843 21.6473C8.90323 21.2627 5.49194 20.7602 5.49194 14.7926C5.49194 13.0867 5.95161 12.2306 6.91935 11.1388C6.7621 10.7356 6.24798 9.07307 7.07661 6.9267C8.34073 6.52348 11.25 8.60161 11.25 8.60161C12.4597 8.25422 13.7601 8.07433 15.0484 8.07433C16.3367 8.07433 17.6371 8.25422 18.8468 8.60161C18.8468 8.60161 21.756 6.51728 23.0202 6.9267C23.8488 9.07927 23.3347 10.7356 23.1774 11.1388C24.1452 12.2368 24.7379 13.0929 24.7379 14.7926C24.7379 20.7788 21.1754 21.2565 17.7944 21.6473C18.3508 22.1374 18.8226 23.0679 18.8226 24.5257C18.8226 26.6162 18.8044 29.203 18.8044 29.7117C18.8044 30.1149 19.0827 30.605 19.8508 30.4623C25.8992 28.4028 30 22.5158 30 15.6362C30 7.03216 23.1956 0.5 14.8065 0.5ZM5.87903 21.8955C5.8004 21.9575 5.81855 22.1002 5.92137 22.218C6.01815 22.3173 6.15726 22.3607 6.23589 22.2801C6.31452 22.218 6.29637 22.0753 6.19355 21.9575C6.09677 21.8582 5.95766 21.8148 5.87903 21.8955ZM5.22581 21.393C5.18347 21.4736 5.24395 21.5729 5.36492 21.6349C5.46169 21.6969 5.58266 21.6783 5.625 21.5915C5.66734 21.5108 5.60685 21.4116 5.48589 21.3496C5.36492 21.3123 5.26815 21.3309 5.22581 21.393ZM7.18548 23.6014C7.08871 23.682 7.125 23.8681 7.26411 23.986C7.40323 24.1287 7.57863 24.1473 7.65726 24.048C7.73589 23.9674 7.6996 23.7813 7.57863 23.6634C7.44556 23.5207 7.26411 23.5021 7.18548 23.6014ZM6.49597 22.6895C6.39919 22.7515 6.39919 22.9128 6.49597 23.0555C6.59274 23.1982 6.75605 23.2602 6.83468 23.1982C6.93145 23.1175 6.93145 22.9562 6.83468 22.8136C6.75 22.6709 6.59274 22.6088 6.49597 22.6895Z" fill="#F9FAFB"/>
</svg>
