<svg width="88" height="43" viewBox="0 0 88 43" fill="none" xmlns="http://www.w3.org/2000/svg">
<path d="M33.01 12.405C32.66 12.405 32.37 12.3 32.14 12.09C31.92 11.88 31.81 11.615 31.81 11.295C31.81 10.975 31.92 10.715 32.14 10.515C32.37 10.305 32.66 10.2 33.01 10.2C33.36 10.2 33.645 10.305 33.865 10.515C34.095 10.715 34.21 10.975 34.21 11.295C34.21 11.615 34.095 11.88 33.865 12.09C33.645 12.3 33.36 12.405 33.01 12.405ZM32.05 21V13.56H33.97V21H32.05ZM38.839 21.18C38.089 21.18 37.424 21.02 36.844 20.7C36.264 20.38 35.809 19.93 35.479 19.35C35.149 18.77 34.984 18.1 34.984 17.34C34.984 16.57 35.144 15.885 35.464 15.285C35.794 14.685 36.244 14.22 36.814 13.89C37.394 13.55 38.074 13.38 38.854 13.38C39.584 13.38 40.229 13.54 40.789 13.86C41.349 14.18 41.784 14.62 42.094 15.18C42.414 15.73 42.574 16.345 42.574 17.025C42.574 17.135 42.569 17.25 42.559 17.37C42.559 17.49 42.554 17.615 42.544 17.745H36.889C36.929 18.325 37.129 18.78 37.489 19.11C37.859 19.44 38.304 19.605 38.824 19.605C39.214 19.605 39.539 19.52 39.799 19.35C40.069 19.17 40.269 18.94 40.399 18.66H42.349C42.209 19.13 41.974 19.56 41.644 19.95C41.324 20.33 40.924 20.63 40.444 20.85C39.974 21.07 39.439 21.18 38.839 21.18ZM38.854 14.94C38.384 14.94 37.969 15.075 37.609 15.345C37.249 15.605 37.019 16.005 36.919 16.545H40.624C40.594 16.055 40.414 15.665 40.084 15.375C39.754 15.085 39.344 14.94 38.854 14.94ZM46.4277 18.78C46.0677 18.78 45.7327 18.74 45.4227 18.66L44.8677 19.215C45.0377 19.305 45.2677 19.38 45.5577 19.44C45.8477 19.5 46.3177 19.56 46.9677 19.62C47.9577 19.71 48.6777 19.945 49.1277 20.325C49.5777 20.705 49.8027 21.23 49.8027 21.9C49.8027 22.34 49.6827 22.755 49.4427 23.145C49.2027 23.545 48.8327 23.865 48.3327 24.105C47.8327 24.355 47.1927 24.48 46.4127 24.48C45.3527 24.48 44.4977 24.28 43.8477 23.88C43.1977 23.49 42.8727 22.9 42.8727 22.11C42.8727 21.44 43.1977 20.86 43.8477 20.37C43.6477 20.28 43.4727 20.185 43.3227 20.085C43.1827 19.985 43.0577 19.88 42.9477 19.77V19.425L44.2527 18.045C43.6727 17.535 43.3827 16.88 43.3827 16.08C43.3827 15.58 43.5027 15.125 43.7427 14.715C43.9927 14.305 44.3427 13.98 44.7927 13.74C45.2427 13.5 45.7877 13.38 46.4277 13.38C46.8477 13.38 47.2377 13.44 47.5977 13.56H50.4177V14.73L49.1427 14.82C49.3427 15.2 49.4427 15.62 49.4427 16.08C49.4427 16.58 49.3227 17.035 49.0827 17.445C48.8427 17.855 48.4927 18.18 48.0327 18.42C47.5827 18.66 47.0477 18.78 46.4277 18.78ZM46.4277 17.31C46.8177 17.31 47.1377 17.205 47.3877 16.995C47.6477 16.785 47.7777 16.485 47.7777 16.095C47.7777 15.705 47.6477 15.405 47.3877 15.195C47.1377 14.985 46.8177 14.88 46.4277 14.88C46.0177 14.88 45.6877 14.985 45.4377 15.195C45.1877 15.405 45.0627 15.705 45.0627 16.095C45.0627 16.485 45.1877 16.785 45.4377 16.995C45.6877 17.205 46.0177 17.31 46.4277 17.31ZM44.6277 21.915C44.6277 22.285 44.7977 22.56 45.1377 22.74C45.4877 22.93 45.9127 23.025 46.4127 23.025C46.8927 23.025 47.2827 22.925 47.5827 22.725C47.8827 22.535 48.0327 22.275 48.0327 21.945C48.0327 21.675 47.9327 21.45 47.7327 21.27C47.5427 21.09 47.1577 20.98 46.5777 20.94C46.1677 20.91 45.7877 20.865 45.4377 20.805C45.1477 20.965 44.9377 21.14 44.8077 21.33C44.6877 21.52 44.6277 21.715 44.6277 21.915ZM54.3448 21.18C53.6248 21.18 52.9748 21.015 52.3948 20.685C51.8248 20.355 51.3698 19.9 51.0298 19.32C50.6998 18.73 50.5348 18.05 50.5348 17.28C50.5348 16.51 50.7048 15.835 51.0448 15.255C51.3848 14.665 51.8398 14.205 52.4098 13.875C52.9898 13.545 53.6398 13.38 54.3598 13.38C55.0698 13.38 55.7098 13.545 56.2798 13.875C56.8598 14.205 57.3148 14.665 57.6448 15.255C57.9848 15.835 58.1548 16.51 58.1548 17.28C58.1548 18.05 57.9848 18.73 57.6448 19.32C57.3148 19.9 56.8598 20.355 56.2798 20.685C55.6998 21.015 55.0548 21.18 54.3448 21.18ZM54.3448 19.515C54.8448 19.515 55.2798 19.33 55.6498 18.96C56.0198 18.58 56.2048 18.02 56.2048 17.28C56.2048 16.54 56.0198 15.985 55.6498 15.615C55.2798 15.235 54.8498 15.045 54.3598 15.045C53.8498 15.045 53.4098 15.235 53.0398 15.615C52.6798 15.985 52.4998 16.54 52.4998 17.28C52.4998 18.02 52.6798 18.58 53.0398 18.96C53.4098 19.33 53.8448 19.515 54.3448 19.515Z" fill="white"/>
<path d="M37.12 36.24C36.12 36.24 35.2333 36.0267 34.46 35.6C33.6867 35.1733 33.08 34.5733 32.64 33.8C32.2 33.0267 31.98 32.1333 31.98 31.12C31.98 30.0933 32.1933 29.18 32.62 28.38C33.06 27.58 33.66 26.96 34.42 26.52C35.1933 26.0667 36.1 25.84 37.14 25.84C38.1133 25.84 38.9733 26.0533 39.72 26.48C40.4667 26.9067 41.0467 27.4933 41.46 28.24C41.8867 28.9733 42.1 29.7933 42.1 30.7C42.1 30.8467 42.0933 31 42.08 31.16C42.08 31.32 42.0733 31.4867 42.06 31.66H34.52C34.5733 32.4333 34.84 33.04 35.32 33.48C35.8133 33.92 36.4067 34.14 37.1 34.14C37.62 34.14 38.0533 34.0267 38.4 33.8C38.76 33.56 39.0267 33.2533 39.2 32.88H41.8C41.6133 33.5067 41.3 34.08 40.86 34.6C40.4333 35.1067 39.9 35.5067 39.26 35.8C38.6333 36.0933 37.92 36.24 37.12 36.24ZM37.14 27.92C36.5133 27.92 35.96 28.1 35.48 28.46C35 28.8067 34.6933 29.34 34.56 30.06H39.5C39.46 29.4067 39.22 28.8867 38.78 28.5C38.34 28.1133 37.7933 27.92 37.14 27.92ZM43.2531 36V26.08H45.5131L45.7131 27.76C46.0198 27.1733 46.4598 26.7067 47.0331 26.36C47.6198 26.0133 48.3065 25.84 49.0931 25.84C50.3198 25.84 51.2731 26.2267 51.9531 27C52.6331 27.7733 52.9731 28.9067 52.9731 30.4V36H50.4131V30.64C50.4131 29.7867 50.2398 29.1333 49.8931 28.68C49.5465 28.2267 49.0065 28 48.2731 28C47.5531 28 46.9598 28.2533 46.4931 28.76C46.0398 29.2667 45.8131 29.9733 45.8131 30.88V36H43.2531ZM55.8011 24.54C55.3344 24.54 54.9478 24.4 54.6411 24.12C54.3478 23.84 54.2011 23.4867 54.2011 23.06C54.2011 22.6333 54.3478 22.2867 54.6411 22.02C54.9478 21.74 55.3344 21.6 55.8011 21.6C56.2678 21.6 56.6478 21.74 56.9411 22.02C57.2478 22.2867 57.4011 22.6333 57.4011 23.06C57.4011 23.4867 57.2478 23.84 56.9411 24.12C56.6478 24.4 56.2678 24.54 55.8011 24.54ZM54.5211 36V26.08H57.0811V36H54.5211ZM63.1731 36C62.1331 36 61.2998 35.7467 60.6731 35.24C60.0465 34.7333 59.7331 33.8333 59.7331 32.54V28.22H58.0331V26.08H59.7331L60.0331 23.42H62.2931V26.08H64.9731V28.22H62.2931V32.56C62.2931 33.04 62.3931 33.3733 62.5931 33.56C62.8065 33.7333 63.1665 33.82 63.6731 33.82H64.9131V36H63.1731ZM70.7372 36.24C69.7372 36.24 68.8505 36.0267 68.0772 35.6C67.3039 35.1733 66.6972 34.5733 66.2572 33.8C65.8172 33.0267 65.5972 32.1333 65.5972 31.12C65.5972 30.0933 65.8105 29.18 66.2372 28.38C66.6772 27.58 67.2772 26.96 68.0372 26.52C68.8105 26.0667 69.7172 25.84 70.7572 25.84C71.7305 25.84 72.5905 26.0533 73.3372 26.48C74.0839 26.9067 74.6639 27.4933 75.0772 28.24C75.5039 28.9733 75.7172 29.7933 75.7172 30.7C75.7172 30.8467 75.7105 31 75.6972 31.16C75.6972 31.32 75.6905 31.4867 75.6772 31.66H68.1372C68.1905 32.4333 68.4572 33.04 68.9372 33.48C69.4305 33.92 70.0239 34.14 70.7172 34.14C71.2372 34.14 71.6705 34.0267 72.0172 33.8C72.3772 33.56 72.6439 33.2533 72.8172 32.88H75.4172C75.2305 33.5067 74.9172 34.08 74.4772 34.6C74.0505 35.1067 73.5172 35.5067 72.8772 35.8C72.2505 36.0933 71.5372 36.24 70.7372 36.24ZM70.7572 27.92C70.1305 27.92 69.5772 28.1 69.0972 28.46C68.6172 28.8067 68.3105 29.34 68.1772 30.06H73.1172C73.0772 29.4067 72.8372 28.8867 72.3972 28.5C71.9572 28.1133 71.4105 27.92 70.7572 27.92ZM76.2303 36V33.94L81.2903 28.2H76.2903V26.08H84.2103V28.14L79.0703 33.88H84.3103V36H76.2303Z" fill="white"/>
<path d="M3.4 39V4H17.45C21.0833 4 23.85 4.85 25.75 6.55C27.6833 8.21666 28.65 10.3667 28.65 13C28.65 15.2 28.05 16.9667 26.85 18.3C25.6833 19.6 24.25 20.4833 22.55 20.95C24.55 21.35 26.2 22.35 27.5 23.95C28.8 25.5167 29.45 27.35 29.45 29.45C29.45 32.2167 28.45 34.5 26.45 36.3C24.45 38.1 21.6167 39 17.95 39H3.4ZM9.8 18.7H16.5C18.3 18.7 19.6833 18.2833 20.65 17.45C21.6167 16.6167 22.1 15.4333 22.1 13.9C22.1 12.4333 21.6167 11.2833 20.65 10.45C19.7167 9.58333 18.3 9.15 16.4 9.15H9.8V18.7ZM9.8 33.8H16.95C18.85 33.8 20.3167 33.3667 21.35 32.5C22.4167 31.6 22.95 30.35 22.95 28.75C22.95 27.1167 22.4 25.8333 21.3 24.9C20.2 23.9667 18.7167 23.5 16.85 23.5H9.8V33.8Z" fill="url(#paint0_linear_13_85)"/>
<defs>
<linearGradient id="paint0_linear_13_85" x1="18" y1="0" x2="18" y2="43" gradientUnits="userSpaceOnUse">
<stop offset="0.255" stop-color="#3B82F6"/>
<stop offset="0.42" stop-color="#1D4ED8"/>
<stop offset="0.965" stop-color="#143BB9"/>
</linearGradient>
</defs>
</svg>
